 <svg version="1.0" xmlns="http://www.w3.org/2000/svg"  width="300.000000pt" height="100.000000pt" viewBox="0 0 300.000000 100.000000"  preserveAspectRatio="xMidYMid meet">  <g transform="translate(0.000000,100.000000) scale(0.100000,-0.100000)" fill="#000000" stroke="none"> <path d="M511 794 c-16 -13 -31 -21 -34 -18 -9 9 -37 -52 -36 -78 0 -22 1 -22 9 -3 8 19 9 19 9 -3 1 -12 8 -35 17 -50 15 -25 15 -25 0 -8 -9 11 -16 15 -16 9 0 -13 18 -26 40 -30 8 -1 28 -17 44 -35 17 -18 27 -25 23 -15 -5 13 4 24 33 43 22 15 37 30 34 35 -3 5 2 6 10 3 20 -8 21 10 1 26 -12 10 -13 16 -4 27 10 11 14 11 28 0 26 -23 51 -28 74 -15 29 15 37 27 37 59 0 52 -34 66 -178 73 -55 3 -67 0 -91 -20z m163 1 c16 -9 31 -13 34 -10 8 8 42 -27 36 -37 -3 -5 -21 2 -39 16 -19 15 -37 26 -42 26 -4 0 -9 -17 -11 -37 -1 -21 -9 -44 -17 -52 -13 -13 -15 -10 -12 24 1 22 7 43 12 47 12 9 -21 10 -53 2 -12 -4 -21 -12 -20 -18 3 -15 -42 -116 -52 -116 -4 0 -12 11 -19 24 -10 19 -11 28 -1 42 8 13 10 14 7 3 -3 -9 -1 -22 5 -30 8 -12 9 -12 6 1 -3 8 8 25 24 38 21 18 26 28 18 37 -14 17 -3 24 54 32 43 6 47 8 26 14 -20 6 -21 7 -5 8 11 0 33 -6 49 -14z m-130 -44 c3 -4 -3 -16 -13 -25 -11 -10 -22 -13 -25 -8 -3 5 -17 7 -32 4 -24 -4 -25 -3 -15 17 6 11 15 20 19 20 20 -3 32 2 26 12 -5 8 -1 8 14 0 12 -6 23 -15 26 -20z m191 -31 c11 -17 -7 -11 -21 8 -12 15 -12 14 -7 -8 6 -22 4 -23 -9 -12 -9 7 -18 24 -20 37 l-5 24 28 -20 c16 -11 31 -24 34 -29z m-119 28 c4 -6 2 -14 -4 -16 -7 -2 -10 -8 -6 -13 3 -5 -2 -9 -10 -9 -10 0 -16 9 -16 25 0 26 23 35 36 13z m-12 -69 c-3 -6 -13 -8 -21 -5 -9 4 -11 2 -7 -6 5 -8 1 -9 -12 -5 -18 7 -18 6 -1 -7 9 -7 17 -18 17 -25 0 -18 -28 -13 -39 8 -16 29 23 75 50 60 11 -5 17 -15 13 -20z m27 -23 c-6 -7 -9 -15 -6 -17 2 -3 -5 -5 -16 -6 -12 -1 -17 2 -13 10 15 27 27 36 36 31 5 -4 5 -11 -1 -18z"/> <path d="M952 753 l-43 -4 3 -61 3 -61 39 -1 c25 -1 41 4 44 13 4 11 -3 12 -32 7 -32 -6 -36 -5 -36 14 0 16 6 20 30 20 17 0 30 5 30 10 0 6 -13 10 -30 10 -24 0 -30 4 -30 21 0 19 4 20 35 15 28 -6 35 -4 35 9 0 8 -1 14 -2 13 -2 -1 -22 -3 -46 -5z"/> <path d="M344 739 c-10 -17 13 -36 27 -22 12 12 4 33 -11 33 -5 0 -12 -5 -16 -11z"/> <path d="M1567 693 c2 -79 14 -83 16 -5 1 36 -2 62 -8 62 -6 0 -9 -25 -8 -57z"/> <path d="M1840 687 l0 -63 40 0 c22 1 39 6 38 11 -2 6 -15 9 -30 9 -23 -2 -28 2 -28 20 0 19 4 22 30 18 18 -3 30 0 30 7 0 6 -13 11 -30 11 -24 0 -30 4 -30 21 0 18 4 21 30 16 16 -4 32 -2 35 3 4 6 -13 10 -39 10 l-46 0 0 -63z"/> <path d="M2458 728 c-9 -26 4 -97 19 -103 9 -3 19 -2 22 1 3 4 0 9 -6 11 -17 6 -17 60 -1 65 9 3 8 9 -4 21 -20 20 -24 21 -30 5z"/> <path d="M791 696 c-18 -19 -48 -42 -67 -52 -19 -11 -32 -24 -29 -31 2 -7 0 -13 -5 -13 -6 0 -10 5 -10 11 0 5 -6 7 -12 4 -7 -4 1 5 17 19 17 14 26 26 22 26 -13 0 -66 -43 -62 -50 2 -4 -13 -24 -34 -44 l-39 -38 -27 29 c-15 15 -24 22 -21 16 16 -29 -19 -10 -61 32 -38 37 -45 50 -41 75 5 32 -1 37 -19 19 -25 -25 46 -132 94 -144 37 -9 63 -33 63 -59 0 -24 -36 -60 -45 -46 -4 6 -3 10 1 10 4 0 -2 10 -14 23 -12 13 -20 26 -17 29 3 3 -3 11 -12 19 -16 13 -17 12 -4 -3 7 -10 10 -18 5 -18 -15 1 -44 26 -38 33 3 3 -3 3 -15 0 -13 -3 -21 -1 -21 6 0 7 6 9 13 5 6 -4 2 4 -9 17 -12 13 -27 35 -33 49 -11 22 -11 23 2 7 13 -15 15 -16 21 -2 3 8 1 15 -5 15 -6 0 -9 7 -5 15 3 8 2 15 -3 15 -15 0 -41 -67 -34 -86 5 -13 3 -15 -7 -9 -9 5 -11 4 -6 -3 4 -7 4 -12 -1 -12 -4 0 -16 -12 -26 -26 -13 -18 -16 -29 -8 -37 5 -7 9 -21 7 -32 -2 -11 0 -34 5 -52 5 -24 3 -33 -6 -33 -16 0 -27 -27 -14 -35 5 -4 6 -11 3 -17 -7 -12 34 -1 53 14 6 5 14 5 17 0 3 -5 -12 -22 -33 -37 -21 -16 -48 -44 -60 -62 -19 -30 -26 -33 -68 -33 -81 0 -39 -12 94 -26 219 -23 501 -14 553 17 13 8 13 9 0 8 -8 -1 -36 -1 -62 0 -43 1 -48 4 -63 35 -9 18 -29 46 -45 61 -26 25 -31 26 -47 14 -16 -13 -17 -12 -5 2 10 14 10 18 -4 23 -9 4 -19 4 -22 1 -3 -3 1 -5 9 -5 11 -1 11 -2 -1 -9 -8 -4 -40 -5 -70 -3 -40 3 -50 7 -35 13 11 4 35 8 53 8 18 1 31 4 28 9 -2 4 13 7 34 5 35 -2 44 3 78 43 22 24 44 44 49 44 12 0 57 48 72 77 6 12 11 35 11 50 0 16 5 34 12 41 9 9 9 12 1 12 -7 0 -15 -5 -19 -11 -4 -8 -9 -7 -15 2 -11 17 -6 -16 5 -43 8 -18 -30 -98 -46 -98 -13 0 -9 16 12 43 22 28 27 71 8 64 -7 -2 -12 -11 -10 -20 6 -38 -93 -174 -131 -179 -6 0 -16 -2 -22 -3 -70 -13 -97 -21 -137 -41 -56 -27 -73 -16 -26 17 18 12 52 40 75 61 24 21 47 38 53 38 6 0 9 4 6 9 -6 10 24 25 32 16 3 -3 1 -5 -5 -5 -6 0 -13 -9 -16 -20 -7 -27 19 -27 33 0 6 11 14 19 18 17 4 -1 9 3 10 8 2 6 7 15 11 20 4 6 8 26 10 45 l3 35 -31 -41 c-27 -36 -71 -61 -84 -47 -8 8 85 93 101 93 9 0 32 9 50 20 35 22 57 26 47 10 -3 -5 -1 -10 4 -10 6 0 11 9 11 19 0 11 5 23 11 26 6 4 8 13 5 20 -3 8 3 19 12 27 15 12 16 11 3 -4 -8 -11 -9 -18 -3 -18 17 0 24 18 15 35 -7 13 -15 9 -42 -19z m9 -21 c0 -8 -82 -65 -94 -65 -6 0 3 8 19 18 17 11 36 26 44 35 13 16 31 23 31 12z m-406 -119 c-3 -8 13 -24 40 -40 25 -15 45 -32 43 -38 -1 -6 4 -13 12 -16 9 -3 11 0 6 9 -5 8 -4 11 0 7 18 -17 13 -60 -10 -83 l-23 -24 -6 34 c-7 35 -33 67 -33 40 0 -8 4 -12 9 -9 4 3 8 -4 8 -15 0 -25 0 -25 -36 -6 -16 8 -36 15 -45 15 -29 0 -43 31 -26 57 4 6 3 14 -3 18 -5 3 -10 10 -10 15 0 6 17 1 38 -9 20 -11 55 -22 77 -25 l40 -6 -38 20 c-21 12 -42 18 -47 15 -5 -3 -12 0 -16 6 -5 8 -3 9 6 4 10 -6 11 -4 4 6 -5 8 -9 17 -9 21 0 3 -4 10 -9 15 -5 5 -6 2 -1 -6 6 -10 4 -12 -6 -6 -11 7 -12 6 -2 -7 16 -19 5 -32 -14 -16 -11 9 -10 15 8 34 16 18 26 21 35 13 7 -6 11 -16 8 -23z m10 -192 c9 -8 16 -28 16 -44 0 -28 1 -29 30 -18 49 16 152 5 189 -22 20 -13 30 -28 27 -37 -3 -8 -1 -11 4 -8 6 3 10 2 10 -3 0 -22 -29 -19 -45 4 -16 25 -43 28 -37 5 2 -9 -3 -9 -18 -1 -23 12 -27 25 -6 17 11 -4 13 -1 9 10 -5 12 -3 14 7 8 9 -6 11 -4 5 4 -6 10 -11 10 -22 -2 -10 -10 -28 -13 -56 -10 -46 5 -102 -11 -92 -27 4 -6 12 -7 18 -3 19 12 97 20 97 11 0 -5 4 -7 8 -4 4 2 14 -5 21 -16 12 -19 11 -20 -11 -13 -38 12 -115 18 -99 7 11 -8 8 -10 -12 -9 -14 1 -23 6 -20 10 3 5 -4 11 -16 14 -12 3 -18 10 -14 17 3 6 -8 -2 -26 -19 l-32 -30 228 -5 c175 -4 214 -7 166 -13 -74 -9 -295 -8 -378 3 -33 4 -52 8 -43 9 11 1 16 8 13 21 -2 11 1 22 6 25 5 4 7 11 3 16 -3 6 8 15 25 22 17 6 31 15 31 20 0 4 -4 5 -10 2 -5 -3 -20 -8 -32 -10 -21 -4 -21 -3 5 16 22 17 25 24 16 35 -8 10 -16 11 -31 3 -26 -14 -52 6 -28 21 23 15 77 12 94 -6z m-81 -116 c-4 -7 -8 -17 -8 -22 0 -5 -8 -10 -17 -12 -22 -3 -23 4 -1 28 18 20 38 25 26 6z"/> <path d="M1010 712 c0 -4 5 -13 12 -20 9 -9 9 -18 -1 -38 -13 -29 -6 -48 9 -24 5 8 11 20 13 25 2 6 14 -1 25 -15 15 -18 21 -21 22 -9 0 8 -5 20 -11 26 -9 9 -8 18 5 37 14 22 14 26 2 26 -8 0 -18 -10 -22 -22 l-7 -22 -17 22 c-19 23 -30 28 -30 14z"/> <path d="M1110 654 c0 -36 4 -64 10 -64 6 0 10 9 10 21 0 15 5 19 19 14 25 -8 43 17 39 57 -3 31 -6 33 -40 35 l-38 1 0 -64z m60 16 c0 -20 -5 -30 -15 -30 -18 0 -30 24 -21 45 10 28 36 17 36 -15z"/> <path d="M1210 668 c0 -26 5 -48 10 -48 6 0 10 16 10 36 0 27 5 37 20 41 30 8 24 22 -10 21 -29 -1 -30 -3 -30 -50z"/> <path d="M1286 704 c-10 -25 -7 -59 6 -72 14 -14 68 -16 68 -2 0 6 -13 10 -30 10 -20 0 -30 5 -30 15 0 11 8 13 30 9 25 -6 30 -3 30 13 0 10 -5 24 -12 31 -17 17 -55 15 -62 -4z"/> <path d="M1384 705 c-9 -23 1 -40 24 -40 32 0 32 -19 0 -23 -16 -2 -28 -8 -28 -13 0 -11 40 -12 58 0 21 13 10 46 -16 49 -30 5 -28 22 3 22 14 0 25 5 25 10 0 16 -60 12 -66 -5z"/> <path d="M1473 704 c-7 -18 4 -31 30 -36 28 -5 25 -23 -5 -26 -16 -2 -28 -8 -28 -13 0 -15 56 -10 70 6 18 21 5 45 -25 45 -14 0 -25 5 -25 10 0 6 11 10 25 10 14 0 25 5 25 10 0 17 -60 12 -67 -6z"/> <path d="M1600 710 c0 -13 39 -90 45 -90 6 0 30 48 39 78 12 37 -10 25 -26 -15 l-14 -38 -14 38 c-13 35 -30 50 -30 27z"/> <path d="M1712 708 c-15 -15 -16 -60 0 -76 14 -14 68 -16 68 -3 0 5 -12 11 -27 13 -14 2 -28 9 -31 15 -2 9 5 11 28 7 30 -7 31 -5 28 22 -2 22 -9 30 -28 32 -14 2 -31 -3 -38 -10z"/> <path d="M1942 671 c3 -52 23 -59 23 -8 0 26 4 33 23 35 20 3 22 -1 22 -37 0 -23 5 -41 10 -41 15 0 12 76 -3 88 -7 6 -27 10 -45 10 -33 -1 -33 -1 -30 -47z"/> <path d="M2056 704 c-10 -25 -7 -59 6 -72 14 -14 68 -16 68 -2 0 6 -13 10 -30 10 -27 0 -30 3 -30 30 0 23 4 30 20 30 11 0 20 -5 20 -11 0 -5 4 -8 10 -4 5 3 7 12 3 20 -7 20 -59 19 -67 -1z"/> <path d="M2152 708 c-16 -16 -15 -63 2 -78 8 -6 25 -10 38 -8 20 3 23 9 23 48 0 41 -2 45 -25 48 -14 2 -31 -3 -38 -10z m53 -38 c0 -38 -39 -35 -43 3 -3 25 0 28 20 25 17 -2 23 -9 23 -28z"/> <path d="M2240 688 c1 -46 20 -68 56 -64 27 3 29 6 32 50 2 26 -1 46 -7 46 -5 0 -11 -17 -13 -37 -2 -30 -7 -38 -23 -38 -17 0 -20 6 -19 38 1 25 -3 37 -12 37 -9 0 -14 -12 -14 -32z"/> <path d="M2350 669 c0 -57 17 -66 22 -12 2 27 8 39 21 41 13 3 17 -4 17 -32 0 -19 5 -38 11 -41 7 -5 9 9 7 42 l-3 48 -37 2 -38 1 0 -49z"/> <path d="M2522 708 c-7 -7 -12 -24 -12 -38 0 -14 5 -31 12 -38 14 -14 68 -16 68 -2 0 6 -13 10 -30 10 -20 0 -30 5 -30 15 0 11 8 13 30 9 31 -7 38 4 24 40 -7 19 -45 21 -62 4z"/> <path d="M2610 668 c0 -26 5 -48 10 -48 6 0 10 16 10 36 0 27 5 37 20 41 30 8 24 22 -10 21 -29 -1 -30 -3 -30 -50z"/> <path d="M2680 705 c-15 -18 0 -40 27 -40 32 0 24 -24 -9 -27 -26 -3 -29 -6 -15 -12 9 -5 29 -5 43 -2 19 5 25 12 22 29 -2 12 -11 23 -23 25 -36 7 -41 22 -7 22 18 0 32 5 32 10 0 16 -56 12 -70 -5z"/> <path d="M272 693 c4 -21 33 -25 33 -3 0 8 -8 16 -18 18 -14 3 -18 -1 -15 -15z"/> <path d="M263 649 c-16 -16 -5 -39 19 -39 14 0 19 6 16 22 -4 25 -19 33 -35 17z"/> <path d="M726 565 c-4 -14 -5 -26 -4 -28 2 -2 -3 -11 -11 -21 -12 -14 -12 -16 3 -10 10 4 15 13 12 20 -3 7 0 11 7 9 21 -8 40 11 32 34 -9 29 -31 27 -39 -4z"/> <path d="M225 550 c-4 -6 -2 -17 5 -25 9 -10 7 -14 -7 -18 -17 -4 -17 -5 0 -6 24 -1 50 26 43 44 -6 17 -32 20 -41 5z"/> <path d="M900 512 c0 -5 4 -22 9 -38 5 -16 12 -41 15 -56 10 -44 33 -34 43 20 l10 47 7 -47 c10 -58 31 -63 45 -10 22 82 23 92 13 92 -6 0 -14 -17 -18 -37 -11 -65 -21 -70 -29 -15 -9 70 -29 67 -41 -5 l-10 -58 -9 54 c-6 30 -16 56 -22 59 -7 2 -13 -1 -13 -6z"/> <path d="M1230 455 c0 -37 4 -65 10 -65 6 0 10 9 10 20 0 26 14 25 33 -2 8 -13 18 -20 23 -15 4 4 -2 18 -14 30 l-22 24 20 18 c11 10 18 21 15 23 -3 3 -16 -5 -30 -18 l-25 -23 0 36 c0 20 -4 37 -10 37 -6 0 -10 -28 -10 -65z"/> <path d="M1418 455 c4 -71 19 -88 24 -28 2 27 8 39 21 41 14 3 17 -4 17 -37 0 -23 5 -41 10 -41 6 0 10 17 10 39 0 41 -20 67 -45 57 -10 -4 -15 1 -15 14 0 11 -6 20 -12 20 -10 0 -12 -18 -10 -65z"/> <path d="M710 482 c0 -5 -11 -15 -25 -22 -18 -10 -22 -16 -13 -22 7 -4 11 -8 8 -9 -35 -6 -44 -9 -52 -17 -6 -6 -5 -13 3 -17 8 -6 10 -4 5 4 -5 8 -3 11 5 10 21 -3 49 12 49 27 0 7 9 19 21 27 13 9 16 17 10 22 -6 3 -11 2 -11 -3z"/> <path d="M1072 478 c-17 -17 -15 -63 2 -78 8 -6 25 -10 38 -8 18 2 24 10 26 36 5 52 -34 82 -66 50z m53 -38 c0 -18 -6 -26 -22 -28 -20 -3 -23 1 -23 28 0 27 3 31 23 28 16 -2 22 -10 22 -28z"/> <path d="M1170 485 c-1 0 -2 -21 -4 -47 -3 -37 0 -48 11 -48 11 0 13 7 8 29 -5 24 -2 33 14 43 28 17 26 26 -4 24 -14 0 -25 -1 -25 -1z"/> <path d="M1330 475 c-18 -21 -5 -45 25 -45 14 0 25 -4 25 -10 0 -5 -13 -10 -30 -10 -16 0 -30 -4 -30 -10 0 -16 56 -12 70 5 16 19 -3 45 -31 45 -11 0 -19 5 -19 10 0 6 11 10 25 10 14 0 25 5 25 10 0 16 -46 12 -60 -5z"/> <path d="M1532 478 c-13 -13 -16 -47 -6 -72 7 -19 45 -21 62 -4 27 27 8 88 -28 88 -9 0 -21 -5 -28 -12z m48 -38 c0 -23 -4 -30 -20 -30 -16 0 -20 7 -20 30 0 23 4 30 20 30 16 0 20 -7 20 -30z"/> <path d="M1620 424 c0 -36 4 -64 10 -64 6 0 10 8 10 18 0 13 8 18 27 17 21 0 30 6 37 28 14 40 -2 62 -48 64 l-36 1 0 -64z m61 34 c-1 -5 -1 -17 -1 -28 0 -23 -28 -27 -36 -5 -9 22 4 47 21 43 9 -2 16 -6 16 -10z"/> <path d="M808 459 c18 -20 15 -33 -5 -18 -17 13 -17 13 0 -7 9 -11 17 -29 17 -39 0 -10 -8 -28 -17 -39 -18 -21 -18 -21 5 -2 18 15 22 28 20 64 -2 30 -8 47 -18 50 -12 4 -13 2 -2 -9z"/> <path d="M760 350 c0 -5 -7 -7 -15 -4 -9 4 -15 0 -15 -7 0 -12 -2 -12 -9 0 -12 19 -24 -3 -16 -29 8 -25 44 -26 51 -2 3 9 10 25 15 35 6 11 6 17 -1 17 -5 0 -10 -4 -10 -10z"/> <path d="M907 313 c-2 -5 -3 -24 -3 -43 1 -31 4 -35 29 -38 15 -2 27 1 27 7 0 6 -9 11 -20 11 -27 0 -25 18 3 23 l22 4 -22 2 c-28 1 -31 21 -3 21 11 0 20 5 20 10 0 12 -47 14 -53 3z"/> <path d="M974 307 c-3 -9 -4 -28 -2 -44 2 -22 9 -29 31 -31 15 -2 27 1 27 7 0 6 -9 11 -20 11 -15 0 -20 7 -20 26 0 22 4 25 21 21 13 -3 19 -1 16 6 -6 18 -46 21 -53 4z"/> <path d="M1047 314 c-4 -4 -7 -22 -7 -41 0 -36 18 -51 48 -37 14 6 12 8 -10 12 -22 3 -28 9 -28 28 0 22 4 25 28 22 21 -2 29 -10 37 -35 13 -45 29 -41 44 8 15 50 6 66 -11 18 l-12 -34 -12 30 c-8 21 -19 30 -41 32 -16 2 -32 1 -36 -3z"/> <path d="M1207 313 c-13 -13 -7 -21 13 -16 11 3 20 0 20 -6 0 -6 -9 -16 -20 -23 -31 -20 -25 -38 13 -38 28 1 30 2 15 14 -16 12 -16 14 -1 29 13 13 14 19 3 31 -13 17 -32 21 -43 9z"/> <path d="M1277 313 c-4 -3 -7 -24 -7 -45 0 -37 2 -39 28 -36 21 2 28 9 30 31 5 41 -28 73 -51 50z m33 -38 c0 -16 -6 -25 -15 -25 -9 0 -15 9 -15 25 0 16 6 25 15 25 9 0 15 -9 15 -25z"/> <path d="M1347 313 c-14 -13 -6 -21 16 -16 l22 6 -22 -25 c-31 -33 -29 -48 8 -48 19 0 28 4 24 11 -4 6 -13 8 -21 5 -19 -7 -18 3 2 25 25 28 -3 69 -29 42z"/> <path d="M1421 292 c-13 -18 -22 -34 -20 -35 2 -1 14 -7 26 -14 26 -15 32 -4 23 47 l-5 35 -24 -33z"/> </g> </svg> 